<svg aria-roledescription="er" role="graphics-document document" viewBox="-5.203193664550781 0 563.4190673828125 708" style="max-width: 563.4190673828125px;" xmlns="http://www.w3.org/2000/svg" width="100%" id="graphDiv"><style>#graphDiv{font-family:"trebuchet ms",verdana,arial,sans-serif;font-size:16px;fill:#333;}#graphDiv .error-icon{fill:#552222;}#graphDiv .error-text{fill:#552222;stroke:#552222;}#graphDiv .edge-thickness-normal{stroke-width:2px;}#graphDiv .edge-thickness-thick{stroke-width:3.5px;}#graphDiv .edge-pattern-solid{stroke-dasharray:0;}#graphDiv .edge-pattern-dashed{stroke-dasharray:3;}#graphDiv .edge-pattern-dotted{stroke-dasharray:2;}#graphDiv .marker{fill:#333333;stroke:#333333;}#graphDiv .marker.cross{stroke:#333333;}#graphDiv svg{font-family:"trebuchet ms",verdana,arial,sans-serif;font-size:16px;}#graphDiv .entityBox{fill:#ECECFF;stroke:#9370DB;}#graphDiv .attributeBoxOdd{fill:#ffffff;stroke:#9370DB;}#graphDiv .attributeBoxEven{fill:#f2f2f2;stroke:#9370DB;}#graphDiv .relationshipLabelBox{fill:hsl(80, 100%, 96.2745098039%);opacity:0.7;background-color:hsl(80, 100%, 96.2745098039%);}#graphDiv .relationshipLabelBox rect{opacity:0.5;}#graphDiv .relationshipLine{stroke:#333333;}#graphDiv .entityTitleText{text-anchor:middle;font-size:18px;fill:#333;}#graphDiv #MD_PARENT_START{fill:#f5f5f5!important;stroke:#333333!important;stroke-width:1;}#graphDiv #MD_PARENT_END{fill:#f5f5f5!important;stroke:#333333!important;stroke-width:1;}#graphDiv :root{--mermaid-font-family:"trebuchet ms",verdana,arial,sans-serif;}</style><g></g><defs><marker orient="auto" markerHeight="240" markerWidth="190" refY="7" refX="0" id="MD_PARENT_START"><path d="M 18,7 L9,13 L1,7 L9,1 Z"></path></marker></defs><defs><marker orient="auto" markerHeight="28" markerWidth="20" refY="7" refX="19" id="MD_PARENT_END"><path d="M 18,7 L9,13 L1,7 L9,1 Z"></path></marker></defs><defs><marker orient="auto" markerHeight="18" markerWidth="18" refY="9" refX="0" id="ONLY_ONE_START"><path d="M9,0 L9,18 M15,0 L15,18" fill="none" stroke="gray"></path></marker></defs><defs><marker orient="auto" markerHeight="18" markerWidth="18" refY="9" refX="18" id="ONLY_ONE_END"><path d="M3,0 L3,18 M9,0 L9,18" fill="none" stroke="gray"></path></marker></defs><defs><marker orient="auto" markerHeight="18" markerWidth="30" refY="9" refX="0" id="ZERO_OR_ONE_START"><circle r="6" cy="9" cx="21" fill="white" stroke="gray"></circle><path d="M9,0 L9,18" fill="none" stroke="gray"></path></marker></defs><defs><marker orient="auto" markerHeight="18" markerWidth="30" refY="9" refX="30" id="ZERO_OR_ONE_END"><circle r="6" cy="9" cx="9" fill="white" stroke="gray"></circle><path d="M21,0 L21,18" fill="none" stroke="gray"></path></marker></defs><defs><marker orient="auto" markerHeight="36" markerWidth="45" refY="18" refX="18" id="ONE_OR_MORE_START"><path d="M0,18 Q 18,0 36,18 Q 18,36 0,18 M42,9 L42,27" fill="none" stroke="gray"></path></marker></defs><defs><marker orient="auto" markerHeight="36" markerWidth="45" refY="18" refX="27" id="ONE_OR_MORE_END"><path d="M3,9 L3,27 M9,18 Q27,0 45,18 Q27,36 9,18" fill="none" stroke="gray"></path></marker></defs><defs><marker orient="auto" markerHeight="36" markerWidth="57" refY="18" refX="18" id="ZERO_OR_MORE_START"><circle r="6" cy="18" cx="48" fill="white" stroke="gray"></circle><path d="M0,18 Q18,0 36,18 Q18,36 0,18" fill="none" stroke="gray"></path></marker></defs><defs><marker orient="auto" markerHeight="36" markerWidth="57" refY="18" refX="39" id="ZERO_OR_MORE_END"><circle r="6" cy="18" cx="9" fill="white" stroke="gray"></circle><path d="M21,18 Q39,0 57,18 Q39,36 21,18" fill="none" stroke="gray"></path></marker></defs><path marker-start="url(#ONLY_ONE_START)" marker-end="url(#ZERO_OR_MORE_END)" style="stroke: gray; fill: none;" d="M187.313,176L193.18,184.333C199.048,192.667,210.784,209.333,216.652,226C222.52,242.667,222.52,259.333,222.52,267.667L222.52,276" class="er relationshipLine"></path><path marker-start="url(#ONLY_ONE_START)" marker-end="url(#ZERO_OR_MORE_END)" style="stroke: gray; fill: none;" d="M71.452,176L64.942,184.333C58.432,192.667,45.411,209.333,38.9,240.833C32.39,272.333,32.39,318.667,32.39,365C32.39,411.333,32.39,457.667,35.951,489.167C39.512,520.667,46.635,537.333,50.196,545.667L53.757,554" class="er relationshipLine"></path><path marker-start="url(#ONLY_ONE_START)" marker-end="url(#ZERO_OR_MORE_END)" style="stroke: gray; fill: none;" d="M190.505,454L187.508,462.333C184.51,470.667,178.515,487.333,169.098,504C159.681,520.667,146.842,537.333,140.422,545.667L134.003,554" class="er relationshipLine"></path><path marker-start="url(#ONLY_ONE_START)" marker-end="url(#ZERO_OR_MORE_END)" style="stroke: gray; fill: none;" d="M269.894,454L274.33,462.333C278.765,470.667,287.637,487.333,306.732,509.5C325.828,531.667,355.147,559.333,369.807,573.167L384.466,587" class="er relationshipLine"></path><path marker-start="url(#ONLY_ONE_START)" marker-end="url(#ZERO_OR_MORE_END)" style="stroke: gray; fill: none;" d="M470.497,399L470.497,416.5C470.497,434,470.497,469,464.586,500.333C458.674,531.667,446.851,559.333,440.939,573.167L435.027,587" class="er relationshipLine"></path><g transform="translate(52.588836669921875,20 )" id="entity-User-818c511a-4a32-5484-ba70-875d765a9175"><rect height="156" width="159.60218811035156" y="0" x="0" class="er entityBox"></rect><text transform="translate(79.80109405517578,12)" style="dominant-baseline: middle; text-anchor: middle; font-size: 12px;" y="0" x="0" id="text-entity-User-818c511a-4a32-5484-ba70-875d765a9175" class="er entityLabel">User</text><rect height="22" width="76.42404174804688" y="24" x="0" class="er attributeBoxOdd"></rect><text transform="translate(5,35)" style="dominant-baseline: middle; font-size: 10.2px;" y="0" x="0" id="text-entity-User-818c511a-4a32-5484-ba70-875d765a9175-attr-1-type" class="er entityLabel">CHAR(36)</text><rect height="22" width="59.5640869140625" y="24" x="76.42404174804688" class="er attributeBoxOdd"></rect><text transform="translate(81.42404174804688,35)" style="dominant-baseline: middle; font-size: 10.2px;" y="0" x="0" id="text-entity-User-818c511a-4a32-5484-ba70-875d765a9175-attr-1-name" class="er entityLabel">id</text><rect height="22" width="23.614059448242188" y="24" x="135.98812866210938" class="er attributeBoxOdd"></rect><text transform="translate(140.98812866210938,35)" style="dominant-baseline: middle; font-size: 10.2px;" y="0" x="0" id="text-entity-User-818c511a-4a32-5484-ba70-875d765a9175-attr-1-key" class="er entityLabel">PK</text><rect height="22" width="76.42404174804688" y="46" x="0" class="er attributeBoxEven"></rect><text transform="translate(5,57)" style="dominant-baseline: middle; font-size: 10.2px;" y="0" x="0" id="text-entity-User-818c511a-4a32-5484-ba70-875d765a9175-attr-2-type" class="er entityLabel">VARCHAR(255)</text><rect height="22" width="59.5640869140625" y="46" x="76.42404174804688" class="er attributeBoxEven"></rect><text transform="translate(81.42404174804688,57)" style="dominant-baseline: middle; font-size: 10.2px;" y="0" x="0" id="text-entity-User-818c511a-4a32-5484-ba70-875d765a9175-attr-2-name" class="er entityLabel">first_name</text><rect height="22" width="23.614059448242188" y="46" x="135.98812866210938" class="er attributeBoxEven"></rect><text transform="translate(140.98812866210938,57)" style="dominant-baseline: middle; font-size: 10.2px;" y="0" x="0" id="text-entity-User-818c511a-4a32-5484-ba70-875d765a9175-attr-2-key" class="er entityLabel"></text><rect height="22" width="76.42404174804688" y="68" x="0" class="er attributeBoxOdd"></rect><text transform="translate(5,79)" style="dominant-baseline: middle; font-size: 10.2px;" y="0" x="0" id="text-entity-User-818c511a-4a32-5484-ba70-875d765a9175-attr-3-type" class="er entityLabel">VARCHAR(255)</text><rect height="22" width="59.5640869140625" y="68" x="76.42404174804688" class="er attributeBoxOdd"></rect><text transform="translate(81.42404174804688,79)" style="dominant-baseline: middle; font-size: 10.2px;" y="0" x="0" id="text-entity-User-818c511a-4a32-5484-ba70-875d765a9175-attr-3-name" class="er entityLabel">last_name</text><rect height="22" width="23.614059448242188" y="68" x="135.98812866210938" class="er attributeBoxOdd"></rect><text transform="translate(140.98812866210938,79)" style="dominant-baseline: middle; font-size: 10.2px;" y="0" x="0" id="text-entity-User-818c511a-4a32-5484-ba70-875d765a9175-attr-3-key" class="er entityLabel"></text><rect height="22" width="76.42404174804688" y="90" x="0" class="er attributeBoxEven"></rect><text transform="translate(5,101)" style="dominant-baseline: middle; font-size: 10.2px;" y="0" x="0" id="text-entity-User-818c511a-4a32-5484-ba70-875d765a9175-attr-4-type" class="er entityLabel">VARCHAR(255)</text><rect height="22" width="59.5640869140625" y="90" x="76.42404174804688" class="er attributeBoxEven"></rect><text transform="translate(81.42404174804688,101)" style="dominant-baseline: middle; font-size: 10.2px;" y="0" x="0" id="text-entity-User-818c511a-4a32-5484-ba70-875d765a9175-attr-4-name" class="er entityLabel">email</text><rect height="22" width="23.614059448242188" y="90" x="135.98812866210938" class="er attributeBoxEven"></rect><text transform="translate(140.98812866210938,101)" style="dominant-baseline: middle; font-size: 10.2px;" y="0" x="0" id="text-entity-User-818c511a-4a32-5484-ba70-875d765a9175-attr-4-key" class="er entityLabel">UK</text><rect height="22" width="76.42404174804688" y="112" x="0" class="er attributeBoxOdd"></rect><text transform="translate(5,123)" style="dominant-baseline: middle; font-size: 10.2px;" y="0" x="0" id="text-entity-User-818c511a-4a32-5484-ba70-875d765a9175-attr-5-type" class="er entityLabel">VARCHAR(255)</text><rect height="22" width="59.5640869140625" y="112" x="76.42404174804688" class="er attributeBoxOdd"></rect><text transform="translate(81.42404174804688,123)" style="dominant-baseline: middle; font-size: 10.2px;" y="0" x="0" id="text-entity-User-818c511a-4a32-5484-ba70-875d765a9175-attr-5-name" class="er entityLabel">password</text><rect height="22" width="23.614059448242188" y="112" x="135.98812866210938" class="er attributeBoxOdd"></rect><text transform="translate(140.98812866210938,123)" style="dominant-baseline: middle; font-size: 10.2px;" y="0" x="0" id="text-entity-User-818c511a-4a32-5484-ba70-875d765a9175-attr-5-key" class="er entityLabel"></text><rect height="22" width="76.42404174804688" y="134" x="0" class="er attributeBoxEven"></rect><text transform="translate(5,145)" style="dominant-baseline: middle; font-size: 10.2px;" y="0" x="0" id="text-entity-User-818c511a-4a32-5484-ba70-875d765a9175-attr-6-type" class="er entityLabel">BOOLEAN</text><rect height="22" width="59.5640869140625" y="134" x="76.42404174804688" class="er attributeBoxEven"></rect><text transform="translate(81.42404174804688,145)" style="dominant-baseline: middle; font-size: 10.2px;" y="0" x="0" id="text-entity-User-818c511a-4a32-5484-ba70-875d765a9175-attr-6-name" class="er entityLabel">is_admin</text><rect height="22" width="23.614059448242188" y="134" x="135.98812866210938" class="er attributeBoxEven"></rect><text transform="translate(140.98812866210938,145)" style="dominant-baseline: middle; font-size: 10.2px;" y="0" x="0" id="text-entity-User-818c511a-4a32-5484-ba70-875d765a9175-attr-6-key" class="er entityLabel"></text></g><g transform="translate(142.2602882385254,276 )" id="entity-Place-18cedc50-4c85-52d4-b2dd-111465382dcf"><rect height="178" width="160.51856994628906" y="0" x="0" class="er entityBox"></rect><text transform="translate(80.25928497314453,12)" style="dominant-baseline: middle; text-anchor: middle; font-size: 12px;" y="0" x="0" id="text-entity-Place-18cedc50-4c85-52d4-b2dd-111465382dcf" class="er entityLabel">Place</text><rect height="22" width="76.42404174804688" y="24" x="0" class="er attributeBoxOdd"></rect><text transform="translate(5,35)" style="dominant-baseline: middle; font-size: 10.2px;" y="0" x="0" id="text-entity-Place-18cedc50-4c85-52d4-b2dd-111465382dcf-attr-1-type" class="er entityLabel">CHAR(36)</text><rect height="22" width="61.40684509277344" y="24" x="76.42404174804688" class="er attributeBoxOdd"></rect><text transform="translate(81.42404174804688,35)" style="dominant-baseline: middle; font-size: 10.2px;" y="0" x="0" id="text-entity-Place-18cedc50-4c85-52d4-b2dd-111465382dcf-attr-1-name" class="er entityLabel">id</text><rect height="22" width="22.68768310546875" y="24" x="137.8308868408203" class="er attributeBoxOdd"></rect><text transform="translate(142.8308868408203,35)" style="dominant-baseline: middle; font-size: 10.2px;" y="0" x="0" id="text-entity-Place-18cedc50-4c85-52d4-b2dd-111465382dcf-attr-1-key" class="er entityLabel">PK</text><rect height="22" width="76.42404174804688" y="46" x="0" class="er attributeBoxEven"></rect><text transform="translate(5,57)" style="dominant-baseline: middle; font-size: 10.2px;" y="0" x="0" id="text-entity-Place-18cedc50-4c85-52d4-b2dd-111465382dcf-attr-2-type" class="er entityLabel">VARCHAR(255)</text><rect height="22" width="61.40684509277344" y="46" x="76.42404174804688" class="er attributeBoxEven"></rect><text transform="translate(81.42404174804688,57)" style="dominant-baseline: middle; font-size: 10.2px;" y="0" x="0" id="text-entity-Place-18cedc50-4c85-52d4-b2dd-111465382dcf-attr-2-name" class="er entityLabel">title</text><rect height="22" width="22.68768310546875" y="46" x="137.8308868408203" class="er attributeBoxEven"></rect><text transform="translate(142.8308868408203,57)" style="dominant-baseline: middle; font-size: 10.2px;" y="0" x="0" id="text-entity-Place-18cedc50-4c85-52d4-b2dd-111465382dcf-attr-2-key" class="er entityLabel"></text><rect height="22" width="76.42404174804688" y="68" x="0" class="er attributeBoxOdd"></rect><text transform="translate(5,79)" style="dominant-baseline: middle; font-size: 10.2px;" y="0" x="0" id="text-entity-Place-18cedc50-4c85-52d4-b2dd-111465382dcf-attr-3-type" class="er entityLabel">TEXT</text><rect height="22" width="61.40684509277344" y="68" x="76.42404174804688" class="er attributeBoxOdd"></rect><text transform="translate(81.42404174804688,79)" style="dominant-baseline: middle; font-size: 10.2px;" y="0" x="0" id="text-entity-Place-18cedc50-4c85-52d4-b2dd-111465382dcf-attr-3-name" class="er entityLabel">description</text><rect height="22" width="22.68768310546875" y="68" x="137.8308868408203" class="er attributeBoxOdd"></rect><text transform="translate(142.8308868408203,79)" style="dominant-baseline: middle; font-size: 10.2px;" y="0" x="0" id="text-entity-Place-18cedc50-4c85-52d4-b2dd-111465382dcf-attr-3-key" class="er entityLabel"></text><rect height="22" width="76.42404174804688" y="90" x="0" class="er attributeBoxEven"></rect><text transform="translate(5,101)" style="dominant-baseline: middle; font-size: 10.2px;" y="0" x="0" id="text-entity-Place-18cedc50-4c85-52d4-b2dd-111465382dcf-attr-4-type" class="er entityLabel">DECIMAL</text><rect height="22" width="61.40684509277344" y="90" x="76.42404174804688" class="er attributeBoxEven"></rect><text transform="translate(81.42404174804688,101)" style="dominant-baseline: middle; font-size: 10.2px;" y="0" x="0" id="text-entity-Place-18cedc50-4c85-52d4-b2dd-111465382dcf-attr-4-name" class="er entityLabel">price</text><rect height="22" width="22.68768310546875" y="90" x="137.8308868408203" class="er attributeBoxEven"></rect><text transform="translate(142.8308868408203,101)" style="dominant-baseline: middle; font-size: 10.2px;" y="0" x="0" id="text-entity-Place-18cedc50-4c85-52d4-b2dd-111465382dcf-attr-4-key" class="er entityLabel"></text><rect height="22" width="76.42404174804688" y="112" x="0" class="er attributeBoxOdd"></rect><text transform="translate(5,123)" style="dominant-baseline: middle; font-size: 10.2px;" y="0" x="0" id="text-entity-Place-18cedc50-4c85-52d4-b2dd-111465382dcf-attr-5-type" class="er entityLabel">FLOAT</text><rect height="22" width="61.40684509277344" y="112" x="76.42404174804688" class="er attributeBoxOdd"></rect><text transform="translate(81.42404174804688,123)" style="dominant-baseline: middle; font-size: 10.2px;" y="0" x="0" id="text-entity-Place-18cedc50-4c85-52d4-b2dd-111465382dcf-attr-5-name" class="er entityLabel">latitude</text><rect height="22" width="22.68768310546875" y="112" x="137.8308868408203" class="er attributeBoxOdd"></rect><text transform="translate(142.8308868408203,123)" style="dominant-baseline: middle; font-size: 10.2px;" y="0" x="0" id="text-entity-Place-18cedc50-4c85-52d4-b2dd-111465382dcf-attr-5-key" class="er entityLabel"></text><rect height="22" width="76.42404174804688" y="134" x="0" class="er attributeBoxEven"></rect><text transform="translate(5,145)" style="dominant-baseline: middle; font-size: 10.2px;" y="0" x="0" id="text-entity-Place-18cedc50-4c85-52d4-b2dd-111465382dcf-attr-6-type" class="er entityLabel">FLOAT</text><rect height="22" width="61.40684509277344" y="134" x="76.42404174804688" class="er attributeBoxEven"></rect><text transform="translate(81.42404174804688,145)" style="dominant-baseline: middle; font-size: 10.2px;" y="0" x="0" id="text-entity-Place-18cedc50-4c85-52d4-b2dd-111465382dcf-attr-6-name" class="er entityLabel">longitude</text><rect height="22" width="22.68768310546875" y="134" x="137.8308868408203" class="er attributeBoxEven"></rect><text transform="translate(142.8308868408203,145)" style="dominant-baseline: middle; font-size: 10.2px;" y="0" x="0" id="text-entity-Place-18cedc50-4c85-52d4-b2dd-111465382dcf-attr-6-key" class="er entityLabel"></text><rect height="22" width="76.42404174804688" y="156" x="0" class="er attributeBoxOdd"></rect><text transform="translate(5,167)" style="dominant-baseline: middle; font-size: 10.2px;" y="0" x="0" id="text-entity-Place-18cedc50-4c85-52d4-b2dd-111465382dcf-attr-7-type" class="er entityLabel">CHAR(36)</text><rect height="22" width="61.40684509277344" y="156" x="76.42404174804688" class="er attributeBoxOdd"></rect><text transform="translate(81.42404174804688,167)" style="dominant-baseline: middle; font-size: 10.2px;" y="0" x="0" id="text-entity-Place-18cedc50-4c85-52d4-b2dd-111465382dcf-attr-7-name" class="er entityLabel">owner_id</text><rect height="22" width="22.68768310546875" y="156" x="137.8308868408203" class="er attributeBoxOdd"></rect><text transform="translate(142.8308868408203,167)" style="dominant-baseline: middle; font-size: 10.2px;" y="0" x="0" id="text-entity-Place-18cedc50-4c85-52d4-b2dd-111465382dcf-attr-7-key" class="er entityLabel">FK</text></g><g transform="translate(20,554 )" id="entity-Review-77c92a79-8cff-50c0-9604-f9135763cccd"><rect height="134" width="124.77986145019531" y="0" x="0" class="er entityBox"></rect><text transform="translate(62.389930725097656,12)" style="dominant-baseline: middle; text-anchor: middle; font-size: 12px;" y="0" x="0" id="text-entity-Review-77c92a79-8cff-50c0-9604-f9135763cccd" class="er entityLabel">Review</text><rect height="22" width="53.17134094238281" y="24" x="0" class="er attributeBoxOdd"></rect><text transform="translate(5,35)" style="dominant-baseline: middle; font-size: 10.2px;" y="0" x="0" id="text-entity-Review-77c92a79-8cff-50c0-9604-f9135763cccd-attr-1-type" class="er entityLabel">CHAR(36)</text><rect height="22" width="48.92083740234375" y="24" x="53.17134094238281" class="er attributeBoxOdd"></rect><text transform="translate(58.17134094238281,35)" style="dominant-baseline: middle; font-size: 10.2px;" y="0" x="0" id="text-entity-Review-77c92a79-8cff-50c0-9604-f9135763cccd-attr-1-name" class="er entityLabel">id</text><rect height="22" width="22.68768310546875" y="24" x="102.09217834472656" class="er attributeBoxOdd"></rect><text transform="translate(107.09217834472656,35)" style="dominant-baseline: middle; font-size: 10.2px;" y="0" x="0" id="text-entity-Review-77c92a79-8cff-50c0-9604-f9135763cccd-attr-1-key" class="er entityLabel">PK</text><rect height="22" width="53.17134094238281" y="46" x="0" class="er attributeBoxEven"></rect><text transform="translate(5,57)" style="dominant-baseline: middle; font-size: 10.2px;" y="0" x="0" id="text-entity-Review-77c92a79-8cff-50c0-9604-f9135763cccd-attr-2-type" class="er entityLabel">TEXT</text><rect height="22" width="48.92083740234375" y="46" x="53.17134094238281" class="er attributeBoxEven"></rect><text transform="translate(58.17134094238281,57)" style="dominant-baseline: middle; font-size: 10.2px;" y="0" x="0" id="text-entity-Review-77c92a79-8cff-50c0-9604-f9135763cccd-attr-2-name" class="er entityLabel">text</text><rect height="22" width="22.68768310546875" y="46" x="102.09217834472656" class="er attributeBoxEven"></rect><text transform="translate(107.09217834472656,57)" style="dominant-baseline: middle; font-size: 10.2px;" y="0" x="0" id="text-entity-Review-77c92a79-8cff-50c0-9604-f9135763cccd-attr-2-key" class="er entityLabel"></text><rect height="22" width="53.17134094238281" y="68" x="0" class="er attributeBoxOdd"></rect><text transform="translate(5,79)" style="dominant-baseline: middle; font-size: 10.2px;" y="0" x="0" id="text-entity-Review-77c92a79-8cff-50c0-9604-f9135763cccd-attr-3-type" class="er entityLabel">INT</text><rect height="22" width="48.92083740234375" y="68" x="53.17134094238281" class="er attributeBoxOdd"></rect><text transform="translate(58.17134094238281,79)" style="dominant-baseline: middle; font-size: 10.2px;" y="0" x="0" id="text-entity-Review-77c92a79-8cff-50c0-9604-f9135763cccd-attr-3-name" class="er entityLabel">rating</text><rect height="22" width="22.68768310546875" y="68" x="102.09217834472656" class="er attributeBoxOdd"></rect><text transform="translate(107.09217834472656,79)" style="dominant-baseline: middle; font-size: 10.2px;" y="0" x="0" id="text-entity-Review-77c92a79-8cff-50c0-9604-f9135763cccd-attr-3-key" class="er entityLabel"></text><rect height="22" width="53.17134094238281" y="90" x="0" class="er attributeBoxEven"></rect><text transform="translate(5,101)" style="dominant-baseline: middle; font-size: 10.2px;" y="0" x="0" id="text-entity-Review-77c92a79-8cff-50c0-9604-f9135763cccd-attr-4-type" class="er entityLabel">CHAR(36)</text><rect height="22" width="48.92083740234375" y="90" x="53.17134094238281" class="er attributeBoxEven"></rect><text transform="translate(58.17134094238281,101)" style="dominant-baseline: middle; font-size: 10.2px;" y="0" x="0" id="text-entity-Review-77c92a79-8cff-50c0-9604-f9135763cccd-attr-4-name" class="er entityLabel">user_id</text><rect height="22" width="22.68768310546875" y="90" x="102.09217834472656" class="er attributeBoxEven"></rect><text transform="translate(107.09217834472656,101)" style="dominant-baseline: middle; font-size: 10.2px;" y="0" x="0" id="text-entity-Review-77c92a79-8cff-50c0-9604-f9135763cccd-attr-4-key" class="er entityLabel">FK</text><rect height="22" width="53.17134094238281" y="112" x="0" class="er attributeBoxOdd"></rect><text transform="translate(5,123)" style="dominant-baseline: middle; font-size: 10.2px;" y="0" x="0" id="text-entity-Review-77c92a79-8cff-50c0-9604-f9135763cccd-attr-5-type" class="er entityLabel">CHAR(36)</text><rect height="22" width="48.92083740234375" y="112" x="53.17134094238281" class="er attributeBoxOdd"></rect><text transform="translate(58.17134094238281,123)" style="dominant-baseline: middle; font-size: 10.2px;" y="0" x="0" id="text-entity-Review-77c92a79-8cff-50c0-9604-f9135763cccd-attr-5-name" class="er entityLabel">place_id</text><rect height="22" width="22.68768310546875" y="112" x="102.09217834472656" class="er attributeBoxOdd"></rect><text transform="translate(107.09217834472656,123)" style="dominant-baseline: middle; font-size: 10.2px;" y="0" x="0" id="text-entity-Review-77c92a79-8cff-50c0-9604-f9135763cccd-attr-5-key" class="er entityLabel">FK</text></g><g transform="translate(402.77885818481445,331 )" id="entity-Amenity-992e3823-6d63-5abe-bdba-901978478821"><rect height="68" width="135.43701171875" y="0" x="0" class="er entityBox"></rect><text transform="translate(67.718505859375,12)" style="dominant-baseline: middle; text-anchor: middle; font-size: 12px;" y="0" x="0" id="text-entity-Amenity-992e3823-6d63-5abe-bdba-901978478821" class="er entityLabel">Amenity</text><rect height="22" width="76.42404174804688" y="24" x="0" class="er attributeBoxOdd"></rect><text transform="translate(5,35)" style="dominant-baseline: middle; font-size: 10.2px;" y="0" x="0" id="text-entity-Amenity-992e3823-6d63-5abe-bdba-901978478821-attr-1-type" class="er entityLabel">CHAR(36)</text><rect height="22" width="35.39891052246094" y="24" x="76.42404174804688" class="er attributeBoxOdd"></rect><text transform="translate(81.42404174804688,35)" style="dominant-baseline: middle; font-size: 10.2px;" y="0" x="0" id="text-entity-Amenity-992e3823-6d63-5abe-bdba-901978478821-attr-1-name" class="er entityLabel">id</text><rect height="22" width="23.614059448242188" y="24" x="111.82295227050781" class="er attributeBoxOdd"></rect><text transform="translate(116.82295227050781,35)" style="dominant-baseline: middle; font-size: 10.2px;" y="0" x="0" id="text-entity-Amenity-992e3823-6d63-5abe-bdba-901978478821-attr-1-key" class="er entityLabel">PK</text><rect height="22" width="76.42404174804688" y="46" x="0" class="er attributeBoxEven"></rect><text transform="translate(5,57)" style="dominant-baseline: middle; font-size: 10.2px;" y="0" x="0" id="text-entity-Amenity-992e3823-6d63-5abe-bdba-901978478821-attr-2-type" class="er entityLabel">VARCHAR(255)</text><rect height="22" width="35.39891052246094" y="46" x="76.42404174804688" class="er attributeBoxEven"></rect><text transform="translate(81.42404174804688,57)" style="dominant-baseline: middle; font-size: 10.2px;" y="0" x="0" id="text-entity-Amenity-992e3823-6d63-5abe-bdba-901978478821-attr-2-name" class="er entityLabel">name</text><rect height="22" width="23.614059448242188" y="46" x="111.82295227050781" class="er attributeBoxEven"></rect><text transform="translate(116.82295227050781,57)" style="dominant-baseline: middle; font-size: 10.2px;" y="0" x="0" id="text-entity-Amenity-992e3823-6d63-5abe-bdba-901978478821-attr-2-key" class="er entityLabel">UK</text></g><g transform="translate(344.48088455200195,587 )" id="entity-PlaceAmenity-3afb35bf-309c-5814-bf96-44dde837d842"><rect height="68" width="152.032958984375" y="0" x="0" class="er entityBox"></rect><text transform="translate(76.0164794921875,12)" style="dominant-baseline: middle; text-anchor: middle; font-size: 12px;" y="0" x="0" id="text-entity-PlaceAmenity-3afb35bf-309c-5814-bf96-44dde837d842" class="er entityLabel">Place_Amenity</text><rect height="22" width="53.17134094238281" y="24" x="0" class="er attributeBoxOdd"></rect><text transform="translate(5,35)" style="dominant-baseline: middle; font-size: 10.2px;" y="0" x="0" id="text-entity-PlaceAmenity-3afb35bf-309c-5814-bf96-44dde837d842-attr-1-type" class="er entityLabel">CHAR(36)</text><rect height="22" width="61.202667236328125" y="24" x="53.17134094238281" class="er attributeBoxOdd"></rect><text transform="translate(58.17134094238281,35)" style="dominant-baseline: middle; font-size: 10.2px;" y="0" x="0" id="text-entity-PlaceAmenity-3afb35bf-309c-5814-bf96-44dde837d842-attr-1-name" class="er entityLabel">place_id</text><rect height="22" width="37.65895080566406" y="24" x="114.37400817871094" class="er attributeBoxOdd"></rect><text transform="translate(119.37400817871094,35)" style="dominant-baseline: middle; font-size: 10.2px;" y="0" x="0" id="text-entity-PlaceAmenity-3afb35bf-309c-5814-bf96-44dde837d842-attr-1-key" class="er entityLabel">PK,FK</text><rect height="22" width="53.17134094238281" y="46" x="0" class="er attributeBoxEven"></rect><text transform="translate(5,57)" style="dominant-baseline: middle; font-size: 10.2px;" y="0" x="0" id="text-entity-PlaceAmenity-3afb35bf-309c-5814-bf96-44dde837d842-attr-2-type" class="er entityLabel">CHAR(36)</text><rect height="22" width="61.202667236328125" y="46" x="53.17134094238281" class="er attributeBoxEven"></rect><text transform="translate(58.17134094238281,57)" style="dominant-baseline: middle; font-size: 10.2px;" y="0" x="0" id="text-entity-PlaceAmenity-3afb35bf-309c-5814-bf96-44dde837d842-attr-2-name" class="er entityLabel">amenity_id</text><rect height="22" width="37.65895080566406" y="46" x="114.37400817871094" class="er attributeBoxEven"></rect><text transform="translate(119.37400817871094,57)" style="dominant-baseline: middle; font-size: 10.2px;" y="0" x="0" id="text-entity-PlaceAmenity-3afb35bf-309c-5814-bf96-44dde837d842-attr-2-key" class="er entityLabel">PK,FK</text></g><rect height="14" width="26.92578125" y="215.47207641601562" x="201.8623046875" class="er relationshipLabelBox"></rect><text style="text-anchor: middle; dominant-baseline: middle; font-size: 12px;" y="222.47207641601562" x="215.3251953125" id="rel6" class="er relationshipLabel">owns</text><rect height="14" width="34.318359375" y="354.9508056640625" x="15.231376647949219" class="er relationshipLabelBox"></rect><text style="text-anchor: middle; dominant-baseline: middle; font-size: 12px;" y="361.9508056640625" x="32.39055633544922" id="rel7" class="er relationshipLabel">writes</text><rect height="14" width="17.861328125" y="499.891845703125" x="158.4995574951172" class="er relationshipLabelBox"></rect><text style="text-anchor: middle; dominant-baseline: middle; font-size: 12px;" y="506.891845703125" x="167.4302215576172" id="rel8" class="er relationshipLabel">has</text><rect height="14" width="17.861328125" y="518.408203125" x="312.27447509765625" class="er relationshipLabelBox"></rect><text style="text-anchor: middle; dominant-baseline: middle; font-size: 12px;" y="525.408203125" x="321.20513916015625" id="rel9" class="er relationshipLabel">has</text><rect height="14" width="58.697265625" y="488.4674377441406" x="436.1038513183594" class="er relationshipLabelBox"></rect><text style="text-anchor: middle; dominant-baseline: middle; font-size: 12px;" y="495.4674377441406" x="465.4524841308594" id="rel10" class="er relationshipLabel">belongs_to</text></svg>